<svg xmlns="http://www.w3.org/2000/svg" xmlns:xlink="http://www.w3.org/1999/xlink" xmlns:svgjs="http://svgjs.com/svgjs" version="1.1" width="512" height="512" x="0" y="0" viewBox="0 0 428.21 428.21" style="enable-background:new 0 0 512 512" xml:space="preserve" class=""><g transform="matrix(0.9899999999999999,0,0,0.9899999999999999,2.1410517883298894,2.141047439575175)">
          <g xmlns="http://www.w3.org/2000/svg">
            <g>
              <path d="M388.879,65.09l0.8-0.4c-31.834-2.004-63.793-0.205-95.2,5.36c-59.112-59.954-145.771-83.725-227.2-62.32    c-4.284,1.08-6.882,5.428-5.803,9.712c0.276,1.096,0.781,2.121,1.483,3.008c0.64,0.8,57.52,71.12,153.44,76    c-45.888,22.579-82.488,60.423-103.52,107.04c-45.2,3.76-81.12,52.56-81.12,112c0,62.24,38.72,112.72,86.72,112.72    c28.32,0,53.52-17.84,69.36-45.2c0.907-2.4,1.733-4.8,2.48-7.2c1.84-5.68,3.44-11.2,4.72-16.56c14.56-60.64-5.36-103.04-24-127.2    c-3.504-4.661-7.298-9.096-11.36-13.28c-2.16-2.16-4.08-4-5.76-5.52c-7.541-4.479-15.837-7.543-24.48-9.04    c9.44-21.28,39.12-73.12,112-102.64c-13.87,19.147-21.471,42.119-21.76,65.76c-21.567,5.045-40.261,18.418-52,37.2    c3.887,3.804,7.572,7.81,11.04,12c22.08,26.56,50.08,77.6,29.84,152.4c-1.36,5.04-2.88,10.16-4.64,15.36    c9.104,4.317,19.045,6.583,29.12,6.64c48,0,86.8-50.48,86.8-112.56c0-60.8-37.44-110.4-83.92-112c0.56-16,5.92-54.16,41.92-75.68    l16-4c31.044-5.674,62.662-7.555,94.16-5.6c4.418,0.243,8.197-3.142,8.44-7.56C396.682,69.112,393.297,65.333,388.879,65.09z     M127.519,395.09c-0.442,4.418-4.382,7.642-8.8,7.2h-1.68c-45.52-10.16-52.48-55.92-52.8-57.92l0.08,0.32    c-0.619-4.418,2.462-8.501,6.88-9.12c4.418-0.619,8.501,2.462,9.12,6.88c0,1.52,5.84,36.64,40,43.84    C124.737,386.732,127.961,390.672,127.519,395.09z M272.959,75.17h-0.96l-9.52,2.48c-92.16,17.12-155.84-35.04-178.4-57.44    c68.856-14.355,140.379,5.872,191.52,54.16L272.959,75.17z" fill="#000000" data-original="#000000" style="" class=""/>
            </g>
          </g>
          <g xmlns="http://www.w3.org/2000/svg">
          </g>
          <g xmlns="http://www.w3.org/2000/svg">
          </g>
          <g xmlns="http://www.w3.org/2000/svg">
          </g>
          <g xmlns="http://www.w3.org/2000/svg">
          </g>
          <g xmlns="http://www.w3.org/2000/svg">
          </g>
          <g xmlns="http://www.w3.org/2000/svg">
          </g>
          <g xmlns="http://www.w3.org/2000/svg">
          </g>
          <g xmlns="http://www.w3.org/2000/svg">
          </g>
          <g xmlns="http://www.w3.org/2000/svg">
          </g>
          <g xmlns="http://www.w3.org/2000/svg">
          </g>
          <g xmlns="http://www.w3.org/2000/svg">
          </g>
          <g xmlns="http://www.w3.org/2000/svg">
          </g>
          <g xmlns="http://www.w3.org/2000/svg">
          </g>
          <g xmlns="http://www.w3.org/2000/svg">
          </g>
          <g xmlns="http://www.w3.org/2000/svg">
          </g>
          </g></svg>